<svg xmlns="http://www.w3.org/2000/svg" width="218.798" height="199.773" viewBox="0 0 218.798 199.773">
    <g>
        <path fill="#848484" d="M28.539 30.039V1.5h19.026v28.539H76.1v19.026H47.565V77.6H28.539V49.065H0V30.039zm28.539 57.078V58.578h28.539V30.039h66.591l17.409 19.026h30.156A19.082 19.082 0 0 1 218.8 68.091v114.156a19.082 19.082 0 0 1-19.026 19.026H47.565a19.082 19.082 0 0 1-19.026-19.026v-95.13zm66.591 85.617A47.565 47.565 0 1 0 76.1 125.169a47.582 47.582 0 0 0 47.569 47.565zm-30.442-47.565a30.442 30.442 0 1 0 30.442-30.442 30.409 30.409 0 0 0-30.442 30.442z" transform="translate(-1334 -569) translate(1334 567.5)"/>
    </g>
</svg>
