<svg xmlns="http://www.w3.org/2000/svg" width="56.25" height="75" viewBox="0 0 56.25 75">
    <path fill="#fff" d="M32.813 19.922V0H3.516A3.507 3.507 0 0 0 0 3.516v67.968A3.507 3.507 0 0 0 3.516 75h49.218a3.507 3.507 0 0 0 3.516-3.516V23.437H36.328a3.526 3.526 0 0 1-3.515-3.515zm9.547 31.642h-9.547v11.719a2.343 2.343 0 0 1-2.344 2.344h-4.688a2.343 2.343 0 0 1-2.344-2.344V51.564H13.89a2.344 2.344 0 0 1-1.651-4.008l14.124-14.018a2.5 2.5 0 0 1 3.521 0l14.124 14.018a2.343 2.343 0 0 1-1.648 4.008zm12.865-36.183L40.884 1.025A3.513 3.513 0 0 0 38.394 0H37.5v18.75h18.75v-.894a3.5 3.5 0 0 0-1.025-2.475z"/>
</svg>
